<?xml version="1.0" encoding="UTF-8"?>
<!DOCTYPE score-partwise PUBLIC "-//Recordare//DTD MusicXML 4.0 Partwise//EN" "http://www.musicxml.org/dtds/partwise.dtd">
<score-partwise version="4.0">
  <work>
    <work-title>Unbenannte Partitur</work-title>
    </work>
  <identification>
    <creator type="composer">Komponist / Arrangeur</creator>
    <encoding>
      <software>MuseScore Studio 4.6.2</software>
      <encoding-date>2025-10-25</encoding-date>
      <supports element="accidental" type="yes"/>
      <supports element="beam" type="yes"/>
      <supports element="print" attribute="new-page" type="yes" value="yes"/>
      <supports element="print" attribute="new-system" type="yes" value="yes"/>
      <supports element="stem" type="yes"/>
      </encoding>
    <miscellaneous>
      <miscellaneous-field name="creationDate">2025-10-22</miscellaneous-field>
      <miscellaneous-field name="platform">Apple Macintosh</miscellaneous-field>
      <miscellaneous-field name="subtitle">Untertitel</miscellaneous-field>
      </miscellaneous>
    </identification>
  <defaults>
    <scaling>
      <millimeters>6.99912</millimeters>
      <tenths>40</tenths>
      </scaling>
    <page-layout>
      <page-height>1696.93</page-height>
      <page-width>1200.48</page-width>
      <page-margins type="even">
        <left-margin>85.725</left-margin>
        <right-margin>85.725</right-margin>
        <top-margin>85.725</top-margin>
        <bottom-margin>85.725</bottom-margin>
        </page-margins>
      <page-margins type="odd">
        <left-margin>85.725</left-margin>
        <right-margin>85.725</right-margin>
        <top-margin>85.725</top-margin>
        <bottom-margin>85.725</bottom-margin>
        </page-margins>
      </page-layout>
    <appearance>
      <line-width type="light barline">1.8</line-width>
      <line-width type="heavy barline">5.5</line-width>
      <line-width type="beam">5</line-width>
      <line-width type="bracket">4.5</line-width>
      <line-width type="dashes">1</line-width>
      <line-width type="enclosure">1</line-width>
      <line-width type="ending">1.1</line-width>
      <line-width type="extend">1</line-width>
      <line-width type="leger">1.6</line-width>
      <line-width type="pedal">1.1</line-width>
      <line-width type="octave shift">1.1</line-width>
      <line-width type="slur middle">2.1</line-width>
      <line-width type="slur tip">0.5</line-width>
      <line-width type="staff">1.1</line-width>
      <line-width type="stem">1</line-width>
      <line-width type="tie middle">2.1</line-width>
      <line-width type="tie tip">0.5</line-width>
      <line-width type="tuplet bracket">1</line-width>
      <line-width type="wedge">1.2</line-width>
      <note-size type="cue">70</note-size>
      <note-size type="grace">70</note-size>
      <note-size type="grace-cue">49</note-size>
      </appearance>
    <music-font font-family="Leland"/>
    <word-font font-family="Edwin" font-size="10"/>
    <lyric-font font-family="Edwin" font-size="10"/>
    </defaults>
  <credit page="1">
    <credit-type>title</credit-type>
    <credit-words default-x="600.241173" default-y="1611.208292" justify="center" valign="top" font-size="22">Test Piece</credit-words>
    </credit>
  <credit page="1">
    <credit-type>subtitle</credit-type>
    <credit-words default-x="600.241173" default-y="1554.058251" justify="center" valign="top" font-size="14">Test subtitle</credit-words>
    </credit>
  <credit page="1">
    <credit-type>composer</credit-type>
    <credit-words default-x="1114.75731" default-y="1511.208419" justify="right" valign="bottom">Test Composer / Test Arrangeur</credit-words>
    </credit>
  <part-list>
    <part-group type="start" number="1">
      <group-symbol>bracket</group-symbol>
      <group-barline>yes</group-barline>
      </part-group>
    <score-part id="P1">
      <part-name>Flöte</part-name>
      <part-abbreviation>Fl.</part-abbreviation>
      <score-instrument id="P1-I1">
        <instrument-name>Flöte</instrument-name>
        <instrument-sound>wind.flutes.flute</instrument-sound>
        </score-instrument>
      <midi-device id="P1-I1" port="1"></midi-device>
      <midi-instrument id="P1-I1">
        <midi-channel>1</midi-channel>
        <midi-program>74</midi-program>
        <volume>78.7402</volume>
        <pan>0</pan>
        </midi-instrument>
      </score-part>
    <score-part id="P2">
      <part-name>Oboe</part-name>
      <part-abbreviation>Ob.</part-abbreviation>
      <score-instrument id="P2-I1">
        <instrument-name>Oboe</instrument-name>
        <instrument-sound>wind.reed.oboe</instrument-sound>
        </score-instrument>
      <midi-device id="P2-I1" port="1"></midi-device>
      <midi-instrument id="P2-I1">
        <midi-channel>2</midi-channel>
        <midi-program>69</midi-program>
        <volume>78.7402</volume>
        <pan>0</pan>
        </midi-instrument>
      </score-part>
    <part-group type="stop" number="1"/>
    </part-list>
  <part id="P1">
    <measure number="1" width="233.03">
      <print>
        <system-layout>
          <system-margins>
            <left-margin>65.82</left-margin>
            <right-margin>0</right-margin>
            </system-margins>
          <top-system-distance>170</top-system-distance>
          </system-layout>
        </print>
      <attributes>
        <divisions>4</divisions>
        <key>
          <fifths>0</fifths>
          </key>
        <time>
          <beats>4</beats>
          <beat-type>4</beat-type>
          </time>
        <clef>
          <sign>G</sign>
          <line>2</line>
          </clef>
        </attributes>
      <note default-x="82.01" default-y="-50">
        <pitch>
          <step>C</step>
          <octave>4</octave>
          </pitch>
        <duration>4</duration>
        <voice>1</voice>
        <type>quarter</type>
        <stem>up</stem>
        </note>
      <note default-x="119.32" default-y="-45">
        <pitch>
          <step>D</step>
          <octave>4</octave>
          </pitch>
        <duration>4</duration>
        <voice>1</voice>
        <type>quarter</type>
        <stem>up</stem>
        </note>
      <note default-x="156.62" default-y="-40">
        <pitch>
          <step>E</step>
          <octave>4</octave>
          </pitch>
        <duration>4</duration>
        <voice>1</voice>
        <type>quarter</type>
        <stem>up</stem>
        </note>
      <note default-x="193.93" default-y="-35">
        <pitch>
          <step>F</step>
          <octave>4</octave>
          </pitch>
        <duration>4</duration>
        <voice>1</voice>
        <type>quarter</type>
        <stem>up</stem>
        </note>
      </measure>
    <measure number="2" width="144.87">
      <note default-x="12.5" default-y="-30">
        <pitch>
          <step>G</step>
          <octave>4</octave>
          </pitch>
        <duration>4</duration>
        <voice>1</voice>
        <type>quarter</type>
        <stem>up</stem>
        </note>
      <note default-x="49.8" default-y="-30">
        <pitch>
          <step>G</step>
          <octave>4</octave>
          </pitch>
        <duration>4</duration>
        <voice>1</voice>
        <type>quarter</type>
        <stem>up</stem>
        </note>
      <note default-x="87.11" default-y="-20">
        <rest/>
        <duration>8</duration>
        <voice>1</voice>
        <type>half</type>
        </note>
      </measure>
    <measure number="3" width="155.67">
      <note default-x="12.5" default-y="-25">
        <pitch>
          <step>A</step>
          <octave>4</octave>
          </pitch>
        <duration>4</duration>
        <voice>1</voice>
        <type>quarter</type>
        <stem>up</stem>
        </note>
      <note default-x="49.8" default-y="-25">
        <pitch>
          <step>A</step>
          <octave>4</octave>
          </pitch>
        <duration>3</duration>
        <voice>1</voice>
        <type>eighth</type>
        <dot default-x="67.8" default-y="-25"/>
        <stem>up</stem>
        <beam number="1">begin</beam>
        </note>
      <note default-x="81.33" default-y="-25">
        <pitch>
          <step>A</step>
          <octave>4</octave>
          </pitch>
        <duration>1</duration>
        <voice>1</voice>
        <type>16th</type>
        <stem>up</stem>
        <beam number="1">end</beam>
        <beam number="2">backward hook</beam>
        </note>
      <note default-x="97.91" default-y="-30">
        <pitch>
          <step>G</step>
          <octave>4</octave>
          </pitch>
        <duration>8</duration>
        <tie type="start"/>
        <voice>1</voice>
        <type>half</type>
        <stem>up</stem>
        <notations>
          <tied type="start"/>
          </notations>
        </note>
      </measure>
    <measure number="4" width="165.21">
      <note default-x="12.5" default-y="-30">
        <pitch>
          <step>G</step>
          <octave>4</octave>
          </pitch>
        <duration>8</duration>
        <tie type="stop"/>
        <voice>1</voice>
        <type>half</type>
        <stem>up</stem>
        <notations>
          <tied type="stop"/>
          </notations>
        </note>
      <note default-x="87.11" default-y="-20">
        <rest/>
        <duration>8</duration>
        <voice>1</voice>
        <type>half</type>
        </note>
      </measure>
    <measure number="5" width="166.2">
      <note default-x="75.7" default-y="-10">
        <rest measure="yes"/>
        <duration>16</duration>
        <voice>1</voice>
        </note>
      </measure>
    <measure number="6" width="98.24">
      <note default-x="41.72" default-y="-10">
        <rest measure="yes"/>
        <duration>16</duration>
        <voice>1</voice>
        </note>
      </measure>
    <measure number="7" width="216.54">
      <print new-system="yes">
        <system-layout>
          <system-margins>
            <left-margin>48.84</left-margin>
            <right-margin>0</right-margin>
            </system-margins>
          <system-distance>240.19</system-distance>
          </system-layout>
        </print>
      <note default-x="59.89" default-y="-40">
        <pitch>
          <step>E</step>
          <octave>4</octave>
          </pitch>
        <duration>4</duration>
        <voice>1</voice>
        <type>quarter</type>
        <stem>up</stem>
        </note>
      <note default-x="59.89" default-y="-30">
        <chord/>
        <pitch>
          <step>G</step>
          <octave>4</octave>
          </pitch>
        <duration>4</duration>
        <voice>1</voice>
        <type>quarter</type>
        <stem>up</stem>
        </note>
      <note default-x="59.89" default-y="-15">
        <chord/>
        <pitch>
          <step>C</step>
          <octave>5</octave>
          </pitch>
        <duration>4</duration>
        <voice>1</voice>
        <type>quarter</type>
        <stem>up</stem>
        </note>
      <note default-x="98.6" default-y="-45">
        <pitch>
          <step>D</step>
          <octave>4</octave>
          </pitch>
        <duration>4</duration>
        <voice>1</voice>
        <type>quarter</type>
        <stem>up</stem>
        </note>
      <note default-x="98.6" default-y="-30">
        <chord/>
        <pitch>
          <step>G</step>
          <octave>4</octave>
          </pitch>
        <duration>4</duration>
        <voice>1</voice>
        <type>quarter</type>
        <stem>up</stem>
        </note>
      <note default-x="98.6" default-y="-20">
        <chord/>
        <pitch>
          <step>B</step>
          <octave>4</octave>
          </pitch>
        <duration>4</duration>
        <voice>1</voice>
        <type>quarter</type>
        <stem>up</stem>
        </note>
      <note default-x="137.32" default-y="-40">
        <pitch>
          <step>E</step>
          <octave>4</octave>
          </pitch>
        <duration>4</duration>
        <voice>1</voice>
        <type>quarter</type>
        <stem>up</stem>
        </note>
      <note default-x="137.32" default-y="-30">
        <chord/>
        <pitch>
          <step>G</step>
          <octave>4</octave>
          </pitch>
        <duration>4</duration>
        <voice>1</voice>
        <type>quarter</type>
        <stem>up</stem>
        </note>
      <note default-x="137.32" default-y="-15">
        <chord/>
        <pitch>
          <step>C</step>
          <octave>5</octave>
          </pitch>
        <duration>4</duration>
        <voice>1</voice>
        <type>quarter</type>
        <stem>up</stem>
        </note>
      <note default-x="176.03" default-y="-45">
        <pitch>
          <step>D</step>
          <octave>4</octave>
          </pitch>
        <duration>4</duration>
        <voice>1</voice>
        <type>quarter</type>
        <stem>up</stem>
        </note>
      <note default-x="176.03" default-y="-30">
        <chord/>
        <pitch>
          <step>G</step>
          <octave>4</octave>
          </pitch>
        <duration>4</duration>
        <voice>1</voice>
        <type>quarter</type>
        <stem>up</stem>
        </note>
      <note default-x="176.03" default-y="-20">
        <chord/>
        <pitch>
          <step>B</step>
          <octave>4</octave>
          </pitch>
        <duration>4</duration>
        <voice>1</voice>
        <type>quarter</type>
        <stem>up</stem>
        </note>
      </measure>
    <measure number="8" width="169.14">
      <note default-x="77.18" default-y="-10">
        <rest measure="yes"/>
        <duration>16</duration>
        <voice>1</voice>
        </note>
      </measure>
    <measure number="9" width="207.11">
      <note default-x="96.16" default-y="-10">
        <rest measure="yes"/>
        <duration>16</duration>
        <voice>1</voice>
        </note>
      </measure>
    <measure number="10" width="101.4">
      <note default-x="43.3" default-y="-10">
        <rest measure="yes"/>
        <duration>16</duration>
        <voice>1</voice>
        </note>
      </measure>
    <measure number="11" width="175.4">
      <note default-x="18.76" default-y="-45">
        <pitch>
          <step>D</step>
          <alter>1</alter>
          <octave>4</octave>
          </pitch>
        <duration>4</duration>
        <voice>1</voice>
        <type>quarter</type>
        <accidental>sharp</accidental>
        <stem>up</stem>
        </note>
      <note default-x="57.47" default-y="-40">
        <pitch>
          <step>E</step>
          <alter>-1</alter>
          <octave>4</octave>
          </pitch>
        <duration>4</duration>
        <voice>1</voice>
        <type>quarter</type>
        <accidental>flat</accidental>
        <stem>up</stem>
        </note>
      <note default-x="96.18" default-y="-35">
        <pitch>
          <step>F</step>
          <octave>4</octave>
          </pitch>
        <duration>4</duration>
        <voice>1</voice>
        <type>quarter</type>
        <stem>up</stem>
        </note>
      <note default-x="134.89" default-y="-30">
        <pitch>
          <step>G</step>
          <octave>4</octave>
          </pitch>
        <duration>4</duration>
        <voice>1</voice>
        <type>quarter</type>
        <stem>up</stem>
        </note>
      </measure>
    <measure number="12" width="110.6">
      <note default-x="43.3" default-y="-10">
        <rest measure="yes"/>
        <duration>16</duration>
        <voice>1</voice>
        </note>
      <barline location="right">
        <bar-style>light-heavy</bar-style>
        </barline>
      </measure>
    </part>
  <part id="P2">
    <measure number="1" width="233.03">
      <print>
        <staff-layout number="1">
          <staff-distance>96.08</staff-distance>
          </staff-layout>
        </print>
      <attributes>
        <divisions>4</divisions>
        <key>
          <fifths>0</fifths>
          </key>
        <time>
          <beats>4</beats>
          <beat-type>4</beat-type>
          </time>
        <clef>
          <sign>G</sign>
          <line>2</line>
          </clef>
        </attributes>
      <note default-x="82.01" default-y="-186.08">
        <pitch>
          <step>C</step>
          <octave>4</octave>
          </pitch>
        <duration>4</duration>
        <voice>1</voice>
        <type>quarter</type>
        <stem>up</stem>
        </note>
      <note default-x="119.32" default-y="-181.08">
        <pitch>
          <step>D</step>
          <octave>4</octave>
          </pitch>
        <duration>4</duration>
        <voice>1</voice>
        <type>quarter</type>
        <stem>up</stem>
        </note>
      <note default-x="156.62" default-y="-176.08">
        <pitch>
          <step>E</step>
          <octave>4</octave>
          </pitch>
        <duration>4</duration>
        <voice>1</voice>
        <type>quarter</type>
        <stem>up</stem>
        </note>
      <note default-x="193.93" default-y="-171.08">
        <pitch>
          <step>F</step>
          <octave>4</octave>
          </pitch>
        <duration>4</duration>
        <voice>1</voice>
        <type>quarter</type>
        <stem>up</stem>
        </note>
      </measure>
    <measure number="2" width="144.87">
      <note default-x="12.5" default-y="-166.07">
        <pitch>
          <step>G</step>
          <octave>4</octave>
          </pitch>
        <duration>4</duration>
        <voice>1</voice>
        <type>quarter</type>
        <stem>up</stem>
        </note>
      <note default-x="49.8" default-y="-166.07">
        <pitch>
          <step>G</step>
          <octave>4</octave>
          </pitch>
        <duration>4</duration>
        <voice>1</voice>
        <type>quarter</type>
        <stem>up</stem>
        </note>
      <note default-x="87.11" default-y="-156.08">
        <rest/>
        <duration>8</duration>
        <voice>1</voice>
        <type>half</type>
        </note>
      </measure>
    <measure number="3" width="155.67">
      <note default-x="70.44" default-y="-146.08">
        <rest measure="yes"/>
        <duration>16</duration>
        <voice>1</voice>
        </note>
      </measure>
    <measure number="4" width="165.21">
      <note default-x="18.3" default-y="-186.08">
        <pitch>
          <step>C</step>
          <octave>4</octave>
          </pitch>
        <duration>4</duration>
        <voice>1</voice>
        <type>quarter</type>
        <stem>up</stem>
        </note>
      <note default-x="55.6" default-y="-186.08">
        <pitch>
          <step>C</step>
          <octave>4</octave>
          </pitch>
        <duration>4</duration>
        <voice>1</voice>
        <type>quarter</type>
        <stem>up</stem>
        </note>
      <note default-x="98.1" default-y="-181.08">
        <pitch>
          <step>D</step>
          <octave>4</octave>
          </pitch>
        <duration>4</duration>
        <voice>1</voice>
        <type>quarter</type>
        <stem>up</stem>
        </note>
      <note default-x="135.41" default-y="-181.08">
        <pitch>
          <step>D</step>
          <octave>4</octave>
          </pitch>
        <duration>4</duration>
        <voice>1</voice>
        <type>quarter</type>
        <stem>up</stem>
        </note>
      <backup>
        <duration>16</duration>
        </backup>
      <note default-x="12.5" default-y="-176.08">
        <pitch>
          <step>E</step>
          <octave>4</octave>
          </pitch>
        <duration>4</duration>
        <voice>2</voice>
        <type>quarter</type>
        <stem>down</stem>
        </note>
      <note default-x="49.8" default-y="-176.08">
        <pitch>
          <step>E</step>
          <octave>4</octave>
          </pitch>
        <duration>4</duration>
        <voice>2</voice>
        <type>quarter</type>
        <stem>down</stem>
        </note>
      <note default-x="87.11" default-y="-176.08">
        <pitch>
          <step>E</step>
          <octave>4</octave>
          </pitch>
        <duration>4</duration>
        <voice>2</voice>
        <type>quarter</type>
        <stem>down</stem>
        </note>
      <note default-x="124.41" default-y="-176.08">
        <pitch>
          <step>E</step>
          <octave>4</octave>
          </pitch>
        <duration>4</duration>
        <voice>2</voice>
        <type>quarter</type>
        <stem>down</stem>
        </note>
      </measure>
    <measure number="5" width="166.2">
      <note default-x="12.5" default-y="-176.08">
        <pitch>
          <step>E</step>
          <octave>4</octave>
          </pitch>
        <duration>4</duration>
        <voice>1</voice>
        <type>quarter</type>
        <stem>up</stem>
        </note>
      <note default-x="49.8" default-y="-176.08">
        <pitch>
          <step>E</step>
          <octave>4</octave>
          </pitch>
        <duration>4</duration>
        <voice>1</voice>
        <type>quarter</type>
        <stem>up</stem>
        </note>
      <note default-x="87.11" default-y="-171.08">
        <pitch>
          <step>F</step>
          <octave>4</octave>
          </pitch>
        <duration>4</duration>
        <voice>1</voice>
        <type>quarter</type>
        <stem>up</stem>
        </note>
      <note default-x="124.41" default-y="-171.08">
        <pitch>
          <step>F</step>
          <octave>4</octave>
          </pitch>
        <duration>4</duration>
        <voice>1</voice>
        <type>quarter</type>
        <stem>up</stem>
        </note>
      <backup>
        <duration>16</duration>
        </backup>
      <note default-x="12.5" default-y="-176.08">
        <pitch>
          <step>E</step>
          <octave>4</octave>
          </pitch>
        <duration>4</duration>
        <voice>2</voice>
        <type>quarter</type>
        <stem>down</stem>
        </note>
      <note default-x="49.8" default-y="-176.08">
        <pitch>
          <step>E</step>
          <octave>4</octave>
          </pitch>
        <duration>4</duration>
        <voice>2</voice>
        <type>quarter</type>
        <stem>down</stem>
        </note>
      <note default-x="99.1" default-y="-176.08">
        <pitch>
          <step>E</step>
          <octave>4</octave>
          </pitch>
        <duration>4</duration>
        <voice>2</voice>
        <type>quarter</type>
        <stem>down</stem>
        </note>
      <note default-x="136.41" default-y="-176.08">
        <pitch>
          <step>E</step>
          <octave>4</octave>
          </pitch>
        <duration>4</duration>
        <voice>2</voice>
        <type>quarter</type>
        <stem>down</stem>
        </note>
      </measure>
    <measure number="6" width="98.24">
      <note default-x="41.72" default-y="-146.08">
        <rest measure="yes"/>
        <duration>16</duration>
        <voice>1</voice>
        </note>
      </measure>
    <measure number="7" width="216.54">
      <print new-system="yes">
        <staff-layout number="1">
          <staff-distance>96.08</staff-distance>
          </staff-layout>
        </print>
      <note default-x="118.32" default-y="-146.07">
        <rest measure="yes"/>
        <duration>16</duration>
        <voice>1</voice>
        </note>
      </measure>
    <measure number="8" width="169.14">
      <note default-x="12.5" default-y="-186.08">
        <pitch>
          <step>C</step>
          <octave>4</octave>
          </pitch>
        <duration>4</duration>
        <voice>1</voice>
        <type>quarter</type>
        <stem>up</stem>
        </note>
      <note default-x="51.21" default-y="-156.07">
        <rest/>
        <duration>4</duration>
        <voice>1</voice>
        <type>quarter</type>
        </note>
      <note default-x="89.92" default-y="-181.08">
        <pitch>
          <step>D</step>
          <octave>4</octave>
          </pitch>
        <duration>4</duration>
        <voice>1</voice>
        <type>quarter</type>
        <stem>up</stem>
        </note>
      <note default-x="128.63" default-y="-156.07">
        <rest/>
        <duration>4</duration>
        <voice>1</voice>
        <type>quarter</type>
        </note>
      </measure>
    <measure number="9" width="207.11">
      <note default-x="12.5" default-y="-181.08">
        <pitch>
          <step>D</step>
          <octave>4</octave>
          </pitch>
        <duration>4</duration>
        <voice>1</voice>
        <type>quarter</type>
        <stem>up</stem>
        </note>
      <note default-x="51.21" default-y="-156.07">
        <rest/>
        <duration>2</duration>
        <voice>1</voice>
        <type>eighth</type>
        </note>
      <note default-x="77.02" default-y="-171.07">
        <pitch>
          <step>F</step>
          <octave>4</octave>
          </pitch>
        <duration>2</duration>
        <voice>1</voice>
        <type>eighth</type>
        <stem>up</stem>
        </note>
      <note default-x="104.07" default-y="-161.07">
        <pitch>
          <step>A</step>
          <octave>4</octave>
          </pitch>
        <duration>2</duration>
        <voice>1</voice>
        <type>eighth</type>
        <stem>up</stem>
        <beam number="1">begin</beam>
        </note>
      <note default-x="129.88" default-y="-156.07">
        <pitch>
          <step>B</step>
          <octave>4</octave>
          </pitch>
        <duration>1</duration>
        <voice>1</voice>
        <type>16th</type>
        <stem>up</stem>
        <beam number="1">end</beam>
        <beam number="2">backward hook</beam>
        </note>
      <note default-x="147.84" default-y="-156.07">
        <rest/>
        <duration>1</duration>
        <voice>1</voice>
        <type>16th</type>
        </note>
      <note default-x="166.6" default-y="-171.07">
        <pitch>
          <step>F</step>
          <octave>4</octave>
          </pitch>
        <duration>4</duration>
        <voice>1</voice>
        <type>quarter</type>
        <stem>up</stem>
        </note>
      </measure>
    <measure number="10" width="101.4">
      <note default-x="43.3" default-y="-146.07">
        <rest measure="yes"/>
        <duration>16</duration>
        <voice>1</voice>
        </note>
      </measure>
    <measure number="11" width="175.4">
      <note default-x="80.3" default-y="-146.07">
        <rest measure="yes"/>
        <duration>16</duration>
        <voice>1</voice>
        </note>
      </measure>
    <measure number="12" width="110.6">
      <note default-x="43.3" default-y="-146.07">
        <rest measure="yes"/>
        <duration>16</duration>
        <voice>1</voice>
        </note>
      <barline location="right">
        <bar-style>light-heavy</bar-style>
        </barline>
      </measure>
    </part>
  </score-partwise>
